<svg width="154" height="154" viewBox="0 0 154 154" fill="none" xmlns="http://www.w3.org/2000/svg">
<g clip-path="url(#clip0_275_8351)">
<path d="M74.8247 0.497417L5.8649 33.7885C5.00015 34.206 4.45093 35.0812 4.45093 36.0413V117.959C4.45093 118.919 5.00046 119.794 5.8649 120.211L74.8247 153.502C76.199 154.166 77.8009 154.166 79.1752 153.502L148.135 120.211C149 119.794 149.549 118.919 149.549 117.959V36.0413C149.549 35.0812 148.999 34.206 148.135 33.7885L79.1752 0.497417C77.8009 -0.165806 76.199 -0.165806 74.8247 0.497417Z" fill="#FFE17D"/>
<path d="M4.86691 34.6719C4.60403 35.0722 4.45093 35.5435 4.45093 36.0413V117.958C4.45093 118.919 5.00046 119.794 5.8649 120.211L74.8247 153.502C75.5117 153.834 76.2558 154 77 154V69.4948L4.86691 34.6719Z" fill="#FFC350"/>
<path d="M149.133 34.6719C149.396 35.0722 149.549 35.5435 149.549 36.0413V117.959C149.549 118.919 149 119.794 148.135 120.211L79.1752 153.502C78.4883 153.834 77.7441 154 77 154V69.4948L149.133 34.6719Z" fill="#FFD164"/>
<path d="M25.0874 113.592C24.7234 113.592 24.3519 113.512 24.0027 113.343L13.356 108.203C12.1101 107.602 11.5898 106.107 12.1908 104.864C12.7893 103.62 14.2893 103.102 15.5303 103.698L26.1771 108.839C27.4229 109.44 27.9433 110.935 27.3423 112.178C26.9125 113.072 26.0183 113.592 25.0874 113.592Z" fill="#FFE17D"/>
<path d="M34.8864 107.214C34.5224 107.214 34.151 107.133 33.8017 106.965L13.3703 97.1022C12.1268 96.5013 11.6041 95.0061 12.2051 93.7627C12.8036 92.5216 14.306 92.0013 15.5446 92.5974L35.9758 102.46C37.2192 103.061 37.742 104.556 37.141 105.8C36.7115 106.693 35.8173 107.214 34.8864 107.214Z" fill="#FFF6D8"/>
<path d="M124.689 46.4326L52.302 11.4629L33.2204 20.7119L105.769 55.7358L124.689 46.4326Z" fill="#FF8087"/>
<path d="M105.769 55.7355V82.8681C105.769 83.7903 106.733 84.3954 107.564 83.9945L123.275 76.4103C124.139 75.9928 124.689 75.1175 124.689 74.1574V46.4326L105.769 55.7355Z" fill="#E6646E"/>
</g>
<defs>
<clipPath id="clip0_275_8351">
<rect width="154" height="154" fill="white"/>
</clipPath>
</defs>
</svg>
