<svg width="32" height="32" viewBox="0 0 32 32" fill="none" xmlns="http://www.w3.org/2000/svg">
<g filter="url(#filter0_b_3439_1097)">
<rect width="32" height="32" rx="16" fill="white"/>
</g>
<path d="M13.5197 9.6671C13.9397 9.67987 14.3464 9.7532 14.7404 9.8872H14.7797C14.8064 9.89987 14.8264 9.91387 14.8397 9.92654C14.987 9.97387 15.1264 10.0272 15.2597 10.1005L15.513 10.2139C15.613 10.2672 15.733 10.3665 15.7997 10.4072C15.8664 10.4465 15.9397 10.4872 15.9997 10.5332C16.7404 9.9672 17.6397 9.66054 18.5664 9.6671C18.987 9.6671 19.407 9.72654 19.8064 9.86054C22.267 10.6605 23.1537 13.3605 22.413 15.7205C21.993 16.9265 21.3064 18.0272 20.407 18.9265C19.1197 20.1732 17.707 21.2799 16.1864 22.2332L16.0197 22.3339L15.8464 22.2265C14.3204 21.2799 12.8997 20.1732 11.6004 18.9199C10.707 18.0205 10.0197 16.9265 9.59302 15.7205C8.83969 13.3605 9.72635 10.6605 12.2137 9.84654C12.407 9.77987 12.6064 9.7332 12.8064 9.7072H12.8864C13.0737 9.67987 13.2597 9.6671 13.4464 9.6671H13.5197ZM19.4597 11.7739C19.1864 11.6799 18.8864 11.8272 18.7864 12.1072C18.693 12.3872 18.8397 12.6939 19.1197 12.7932C19.547 12.9532 19.833 13.3739 19.833 13.8399V13.8605C19.8204 14.0132 19.8664 14.1605 19.9597 14.2739C20.053 14.3872 20.193 14.4532 20.3397 14.4672C20.613 14.4599 20.8464 14.2405 20.8664 13.9599V13.8805C20.8864 12.9465 20.3204 12.1005 19.4597 11.7739Z" fill="#CED55B"/>
<defs>
<filter id="filter0_b_3439_1097" x="-10" y="-10" width="52" height="52" filterUnits="userSpaceOnUse" color-interpolation-filters="sRGB">
<feFlood flood-opacity="0" result="BackgroundImageFix"/>
<feGaussianBlur in="BackgroundImageFix" stdDeviation="5"/>
<feComposite in2="SourceAlpha" operator="in" result="effect1_backgroundBlur_3439_1097"/>
<feBlend mode="normal" in="SourceGraphic" in2="effect1_backgroundBlur_3439_1097" result="shape"/>
</filter>
</defs>
</svg>
