<svg width="20" height="20" viewBox="0 0 20 20" fill="none" xmlns="http://www.w3.org/2000/svg">
<path d="M5.4165 1.66699V6.66699" stroke="#040B14" stroke-width="1.5" stroke-miterlimit="10" stroke-linecap="round" stroke-linejoin="round"/>
<path d="M5.4165 14.9997V18.333" stroke="#040B14" stroke-width="1.5" stroke-miterlimit="10" stroke-linecap="round" stroke-linejoin="round"/>
<path d="M8.33333 11.6663C8.33333 10.0555 7.0275 8.74967 5.41667 8.74967C3.80584 8.74967 2.5 10.0555 2.5 11.6663C2.5 13.2772 3.80584 14.583 5.41667 14.583C7.0275 14.583 8.33333 13.2772 8.33333 11.6663Z" stroke="#040B14" stroke-width="1.5" stroke-miterlimit="10" stroke-linecap="round" stroke-linejoin="round"/>
<path d="M14.5835 1.66667V5" stroke="#040B14" stroke-width="1.5" stroke-miterlimit="10" stroke-linecap="round" stroke-linejoin="round"/>
<path d="M14.5835 13.333V18.333" stroke="#040B14" stroke-width="1.5" stroke-miterlimit="10" stroke-linecap="round" stroke-linejoin="round"/>
<path d="M17.4998 8.33333C17.4998 6.7225 16.194 5.41667 14.5832 5.41667C12.9723 5.41667 11.6665 6.7225 11.6665 8.33333C11.6665 9.94416 12.9723 11.25 14.5832 11.25C16.194 11.25 17.4998 9.94416 17.4998 8.33333Z" stroke="#040B14" stroke-width="1.5" stroke-miterlimit="10" stroke-linecap="round" stroke-linejoin="round"/>
</svg>
